<?xml version="1.0" standalone="no"?>
<!DOCTYPE svg PUBLIC "-//W3C//DTD SVG 20010904//EN"
 "http://www.w3.org/TR/2001/REC-SVG-20010904/DTD/svg10.dtd">
<svg version="1.0" xmlns="http://www.w3.org/2000/svg"
 width="120.000000pt" height="120.000000pt" viewBox="0 0 120.000000 120.000000"
 preserveAspectRatio="xMidYMid meet">
<metadata>
Created by potrace 1.11, written by Peter Selinger 2001-2013
</metadata>
<g transform="translate(0.000000,120.000000) scale(0.100000,-0.100000)"
fill="#000000" stroke="none">
<path d="M485 1050 c7 -33 -7 -82 -33 -112 -8 -10 -12 -18 -9 -18 4 0 3 -10
-2 -23 -5 -14 -5 -30 1 -40 8 -14 2 -20 -36 -36 -41 -18 -87 -64 -92 -94 -1
-6 -4 -24 -7 -39 -3 -16 -2 -41 3 -57 7 -27 5 -31 -23 -45 -42 -21 -67 -41
-67 -54 0 -6 -4 -12 -9 -14 -15 -5 -23 -85 -12 -123 6 -21 6 -36 0 -36 -5 -1
-13 -2 -17 -3 -26 -4 -83 -56 -95 -86 -27 -69 -1 -153 58 -184 30 -17 47 -18
142 -11 127 9 220 9 283 0 60 -9 355 -10 404 -1 58 10 120 44 139 76 23 38 21
98 -3 138 -22 35 -74 72 -104 72 -13 0 -16 5 -11 18 12 28 17 91 11 118 -8 32
-59 82 -91 90 -23 6 -25 10 -21 53 3 34 -1 53 -16 74 -21 30 -66 57 -95 57
-15 0 -18 8 -17 40 2 54 -29 112 -88 164 -48 42 -126 87 -177 101 -22 7 -23 5
-16 -25z"/>
</g>
</svg>
